<svg width="396" height="63" viewBox="0 0 396 63" fill="none" xmlns="http://www.w3.org/2000/svg">
<path d="M383.74 7.38992C383.74 5.73992 384.32 4.32992 385.49 3.16992C386.66 1.99992 388.07 1.41992 389.72 1.41992C391.37 1.41992 392.77 1.99992 393.94 3.16992C395.11 4.33992 395.69 5.73992 395.69 7.38992C395.69 9.03992 395.11 10.4499 393.94 11.6199C392.77 12.7899 391.37 13.3699 389.72 13.3699C388.07 13.3699 386.66 12.7899 385.49 11.6199C384.32 10.4499 383.74 9.03992 383.74 7.38992ZM394.72 7.38992C394.72 6.00992 394.23 4.82992 393.26 3.85992C392.29 2.88992 391.11 2.39993 389.73 2.39993C388.35 2.39993 387.17 2.88992 386.19 3.85992C385.21 4.82992 384.72 6.00992 384.72 7.38992C384.72 8.76992 385.21 9.94993 386.19 10.9299C387.17 11.9099 388.35 12.3999 389.73 12.3999C391.11 12.3999 392.29 11.9099 393.26 10.9299C394.23 9.94993 394.72 8.76992 394.72 7.38992ZM391.58 10.9999L389.72 7.81992H388.66V10.9999H387.61V3.62991H389.49C391.26 3.62991 392.14 4.30992 392.14 5.66992C392.14 6.61992 391.66 7.28993 390.72 7.67993L392.73 10.9999H391.59H391.58ZM388.66 4.52991V6.96991C388.75 6.97991 388.98 6.98993 389.35 6.98993C390.03 6.98993 390.49 6.89992 390.73 6.72992C390.96 6.54992 391.08 6.21993 391.08 5.73993C391.08 4.92993 390.55 4.52991 389.5 4.52991H388.67H388.66Z" fill="#274764"/>
<path fill-rule="evenodd" clip-rule="evenodd" d="M60.3 3.89014L40.2 15.5001L20.1 3.89014L0 15.5001V34.2001L20.1 22.6001L40.2 34.2001L60.3 22.6001L80.4 34.2001V15.5001L60.3 3.89014Z" fill="url(#paint0_linear_179553_96565)"/>
<path fill-rule="evenodd" clip-rule="evenodd" d="M60.3 32L40.2 43.61L20.1 32L0 43.61V62.31L20.1 50.71L40.2 62.31L60.3 50.71L80.4 62.31V43.61L60.3 32Z" fill="url(#paint1_linear_179553_96565)"/>
<path d="M97.95 61.1399L98.68 59.2999C99.06 59.5699 99.52 59.7999 100.08 59.9799C100.64 60.1599 101.14 60.2599 101.58 60.2599C102.36 60.2599 102.99 60.0499 103.46 59.6199C103.93 59.1899 104.17 58.6499 104.17 57.9899C104.17 57.4999 104.04 57.0399 103.78 56.6199C103.52 56.1999 102.85 55.7399 101.79 55.2399L100.61 54.6899C99.61 54.2199 98.9099 53.6699 98.5099 53.0299C98.1099 52.3899 97.91 51.6199 97.91 50.7199C97.91 49.6299 98.2999 48.7199 99.0699 47.9999C99.8399 47.2799 100.84 46.9199 102.05 46.9199C103.67 46.9199 104.8 47.1799 105.43 47.7099L104.84 49.4599C104.57 49.2699 104.16 49.0699 103.62 48.8899C103.07 48.7099 102.57 48.6199 102.1 48.6199C101.42 48.6199 100.88 48.8099 100.49 49.1999C100.1 49.5899 99.9 50.0799 99.9 50.6899C99.9 51.0599 99.97 51.3999 100.11 51.7099C100.25 52.0199 100.44 52.2699 100.69 52.4799C100.94 52.6899 101.45 52.9799 102.22 53.3499L103.42 53.9199C104.42 54.3899 105.12 54.9599 105.53 55.6099C105.93 56.2699 106.13 57.0999 106.13 58.1099C106.13 59.2099 105.69 60.1399 104.81 60.9099C103.93 61.6799 102.74 62.0599 101.26 62.0599C99.9599 62.0599 98.85 61.7499 97.93 61.1399H97.95ZM124.92 61.8099V54.7299H118.54V61.8099H116.54V47.1799H118.54V53.0299H124.92V47.1799H126.92V61.8099H124.92ZM138.35 61.8099V47.1799H140.35V61.8099H138.35ZM153.79 56.1899V61.8099H151.79V47.1799C153.3 47.1199 154.22 47.0799 154.53 47.0799C158.78 47.0799 160.91 48.4999 160.91 51.3499C160.91 54.6399 159.03 56.2899 155.27 56.2899C155.04 56.2899 154.55 56.2599 153.79 56.1899ZM153.79 48.9799V54.3899C154.64 54.4599 155.08 54.4899 155.13 54.4899C157.61 54.4899 158.85 53.5099 158.85 51.5599C158.85 49.7799 157.53 48.8799 154.89 48.8799C154.62 48.8799 154.26 48.9099 153.8 48.9799H153.79ZM193.35 61.8099L191.62 52.4199L188.42 62.0099H187.93L184.63 52.4199L182.94 61.8099H181.04L183.78 47.1799H184.68L188.19 57.8599L191.39 47.1799H192.29L195.26 61.8099H193.36H193.35ZM213.27 61.8099L212.26 58.7199H206.79L205.71 61.8099H203.48L209.43 46.9799H209.96L215.48 61.8099H213.27ZM209.6 50.8299L207.32 57.2499H211.69L209.6 50.8299ZM234.57 62.0199L227 51.3199V61.8099H225.1V47.1799H225.9L233.26 57.3099V47.1799H235.16V62.0099H234.57V62.0199ZM254.57 61.8199L253.56 58.7299H248.09L247 61.8199H244.77L250.72 46.9899H251.25L256.77 61.8199H254.56H254.57ZM250.9 50.8399L248.62 57.2599H252.99L250.9 50.8399ZM276.55 48.1999L275.72 49.8499C274.71 49.1099 273.73 48.7399 272.76 48.7399C271.23 48.7399 270.02 49.2799 269.14 50.3599C268.26 51.4399 267.81 52.8699 267.81 54.6499C267.81 56.4299 268.24 57.6999 269.11 58.7299C269.97 59.7599 271.15 60.2799 272.65 60.2799C273.71 60.2799 274.57 59.9599 275.23 59.3199V55.8999H273.2V54.1999H277.23V60.5699C276.7 61.0199 275.95 61.3799 275 61.6599C274.04 61.9399 273.12 62.0799 272.22 62.0799C270.2 62.0799 268.61 61.3899 267.44 60.0299C266.27 58.6599 265.69 56.8399 265.69 54.5699C265.69 52.2999 266.33 50.4699 267.61 49.0599C268.89 47.6499 270.62 46.9499 272.8 46.9499C274.32 46.9499 275.57 47.3699 276.53 48.2199L276.55 48.1999ZM290.33 48.9999V53.0499H295.06V54.7499H290.33V60.0299H296.96V61.8299H288.33V47.1999H296.96V48.9999H290.33ZM318.38 61.8299L316.65 52.4399L313.45 62.0299H312.96L309.66 52.4399L307.97 61.8299H306.07L308.81 47.1999H309.71L313.22 57.8799L316.42 47.1999H317.32L320.29 61.8299H318.39H318.38ZM331.98 48.9999V53.0499H336.71V54.7499H331.98V60.0299H338.61V61.8299H329.98V47.1999H338.61V48.9999H331.98ZM358.49 62.0299L350.92 51.3299V61.8199H349.02V47.1899H349.82L357.18 57.3199V47.1899H359.08V62.0199H358.49V62.0299ZM375.5 48.9999V61.8299H373.5V48.9999H368.84V47.1999H380.38V48.9999H375.51H375.5Z" fill="#002766"/>
<path d="M126.13 34.8601L126.09 16.2601L116.97 31.5901H113.74L104.66 16.6601V34.8701H97.93V3.86011H103.87L115.48 23.1301L126.91 3.86011H132.8L132.89 34.8701H126.16L126.13 34.8601Z" fill="#002766"/>
<path d="M160.81 21.2599V34.8599H154.34V31.8899C153.06 34.0599 150.58 35.2099 147.08 35.2099C141.5 35.2099 138.18 32.1099 138.18 27.9899C138.18 23.8699 141.15 20.8599 148.41 20.8599H153.9C153.9 17.8899 152.13 16.1599 148.41 16.1599C145.89 16.1599 143.27 16.9999 141.54 18.3699L139.06 13.5399C141.67 11.6799 145.53 10.6599 149.34 10.6599C156.6 10.6599 160.81 14.0299 160.81 21.2499V21.2599ZM153.9 27.3299V24.8899H149.16C145.93 24.8899 144.91 26.0899 144.91 27.6799C144.91 29.4099 146.37 30.5599 148.81 30.5599C151.11 30.5599 153.11 29.4999 153.9 27.3299Z" fill="#002766"/>
<path d="M181.85 10.6699V17.0499C181.27 17.0099 180.83 16.9599 180.3 16.9599C176.49 16.9599 173.97 19.0399 173.97 23.5999V34.8499H167.06V11.0199H173.66V14.1599C175.34 11.8599 178.18 10.6599 181.86 10.6599L181.85 10.6699Z" fill="#002766"/>
<path d="M185.12 3.85001C185.12 1.68001 186.85 0 189.42 0C191.99 0 193.72 1.59 193.72 3.72C193.72 6.02 191.99 7.71002 189.42 7.71002C186.85 7.71002 185.12 6.03002 185.12 3.86002V3.85001ZM185.96 11.03H192.87V34.86H185.96V11.03Z" fill="#002766"/>
<path d="M223.66 21.2199V34.8599H216.75V22.2799C216.75 18.4299 214.98 16.6599 211.92 16.6599C208.6 16.6599 206.21 18.6999 206.21 23.0799V34.8599H199.3V11.0299H205.9V13.8199C207.76 11.7799 210.55 10.6699 213.78 10.6699C219.41 10.6699 223.66 13.9499 223.66 21.2099V21.2199Z" fill="#002766"/>
<path d="M253.38 24.8899H235.35C236.01 27.8599 238.54 29.6699 242.17 29.6699C244.7 29.6699 246.51 28.9199 248.15 27.3699L251.83 31.3599C249.62 33.8799 246.29 35.2099 242 35.2099C233.76 35.2099 228.4 30.0299 228.4 22.9399C228.4 15.8499 233.85 10.6699 241.11 10.6699C248.37 10.6699 253.51 15.3699 253.51 23.0299C253.51 23.5599 253.42 24.3199 253.38 24.8899ZM235.26 20.8599H247C246.51 17.8499 244.25 15.8999 241.15 15.8999C238.05 15.8999 235.75 17.8099 235.26 20.8599Z" fill="#002766"/>
<path d="M299.35 34.8601L299.31 16.2601L290.19 31.5901H286.96L277.88 16.6601V34.8701H271.15V3.86011H277.09L288.7 23.1301L300.13 3.86011H306.02L306.11 34.8701H299.38L299.35 34.8601Z" fill="#002766"/>
<path d="M333.85 28.2201H319.45L316.7 34.8601H309.35L323.17 3.8501H330.26L344.13 34.8601H336.6L333.85 28.2201ZM331.59 22.7701L326.67 10.9001L321.75 22.7701H331.58H331.59Z" fill="#002766"/>
<path d="M375.8 3.8501V34.8601H369.91L354.45 16.0301V34.8601H347.36V3.8501H353.3L368.72 22.6801V3.8501H375.81H375.8Z" fill="#002766"/>
<defs>
<linearGradient id="paint0_linear_179553_96565" x1="0" y1="19.0501" x2="80.4" y2="19.0501" gradientUnits="userSpaceOnUse">
<stop stop-color="#22A1FC"/>
<stop offset="1" stop-color="#2EE9A8"/>
</linearGradient>
<linearGradient id="paint1_linear_179553_96565" x1="0" y1="47.16" x2="80.4" y2="47.16" gradientUnits="userSpaceOnUse">
<stop stop-color="#22A1FC"/>
<stop offset="1" stop-color="#2EE9A8"/>
</linearGradient>
</defs>
</svg>
